<svg width="16" height="16" viewBox="0 0 16 16" fill="none" xmlns="http://www.w3.org/2000/svg">
<g id="Group">
<path id="Vector (Stroke)" fill-rule="evenodd" clip-rule="evenodd" d="M0.666672 8C0.666672 3.94991 3.94992 0.666664 8 0.666664C12.0501 0.666664 15.3333 3.94991 15.3333 8C15.3333 12.0501 12.0501 15.3333 8 15.3333C3.94992 15.3333 0.666672 12.0501 0.666672 8Z" fill="#08AD36"/>
<path id="Vector (Stroke)_2" fill-rule="evenodd" clip-rule="evenodd" d="M11.5404 5.36195C11.8008 5.6223 11.8008 6.04441 11.5404 6.30476L7.40237 10.6381C7.14202 10.8984 6.71991 10.8984 6.45956 10.6381L4.45956 8.6381C4.19921 8.37775 4.19921 7.95564 4.45956 7.69529C4.71991 7.43494 5.14202 7.43494 5.40237 7.69529L6.93096 9.22388L10.5976 5.36195C10.858 5.1016 11.2801 5.1016 11.5404 5.36195Z" fill="white"/>
</g>
</svg>
